<?xml version="1.0" encoding="utf-8"?>
<!-- Generator: Adobe Illustrator 15.0.0, SVG Export Plug-In . SVG Version: 6.00 Build 0)  -->
<!DOCTYPE svg PUBLIC "-//W3C//DTD SVG 1.1//EN" "http://www.w3.org/Graphics/SVG/1.1/DTD/svg11.dtd">
<svg version="1.1" id="Layer_1" xmlns="http://www.w3.org/2000/svg" xmlns:xlink="http://www.w3.org/1999/xlink" x="0px" y="0px"
	 width="424.147px" height="124.847px" viewBox="116.359 158.295 424.147 124.847"
	 enable-background="new 116.359 158.295 424.147 124.847" xml:space="preserve">
<g>
	<g>
		<path fill="#FFFFFF" d="M537.071,254.914c3.392-6.069,4.112-13.843,2.86-20.561c-3.646-19.549-25.02-29.357-41.82-34.948
			c-28.132-9.359-57.64-10.204-86.997-9.758c-13.539,0.207-27.409,0.956-40.695,3.792c6.667,0,13.333,0,20,0
			c-19.118-14.35-43.33-23.417-66.28-29.086c-24.309-6.005-49.125-6.46-74.035-5.862c-22.935,0.55-44.379,6.521-66.469,11.903
			c-22.324,5.44-44.799,10.31-67.275,15.077c6.346-1.346,13.593,1.359,20,0c29.912-6.345,59.631-13.259,89.249-20.832
			c13.806-3.53,28-5.485,42.23-6.046c7.462-0.294-14.009-0.263-5.59-0.021c1.479,0.043,2.955,0.117,4.433,0.192
			c3.243,0.165,6.479,0.446,9.712,0.772c5.914,0.595,11.793,1.508,17.632,2.611c18.236,3.449,36.004,9.46,52.713,17.519
			c8.021,3.868,15.954,8.22,23.2,13.421c1.419,1.019,3.82,0.429,5.435,0.438c4.969,0.029,10.658,0.795,15.56-0.19
			c5.324-1.072,10.734-1.752,16.133-2.327c5.083-0.541,10.186-0.878,15.292-1.098c1.526-0.066,3.054-0.107,4.581-0.141
			c-2.771,0-5.542-0.001-8.313-0.001c1.234,0.024,2.468,0.06,3.701,0.106c4.284,0.146,8.562,0.45,12.831,0.835
			c15.229,1.376,30.282,4.479,44.791,9.306c16.833,5.602,36.539,15.856,40.112,35.022c1.199,6.434,0.243,14.091-2.988,19.875
			c0.353-0.629,9.185,0.1,10,0.1C527.985,255.014,536.604,255.75,537.071,254.914L537.071,254.914z"/>
	</g>
	<g>
		<path fill="#FFFFFF" d="M194.87,224.349l-3.534,3.116v7.295h-10.714v-27.128h10.714v9.575l9.955-9.575h14.21l-12.12,10.486
			l13.146,16.642h-14.248L194.87,224.349z"/>
		<path fill="#FFFFFF" d="M328.816,224.197c-0.685,3.571-1.9,6.459-4.561,8.436c-2.622,1.976-6.725,3.078-13.26,3.078
			c-6.497,0-18.542-0.456-18.542-14.515c0-14.058,12.044-14.514,18.542-14.514c6.459,0,16.414,0.835,17.819,11.588h-12.083
			c-0.304-1.938-1.596-4.749-5.737-4.749c-4.37,0-7.143,2.166-7.143,7.675c0,5.51,2.697,7.676,6.61,7.676
			c3.383,0,5.396-1.406,6.27-4.675H328.816z"/>
		<path fill="#FFFFFF" d="M408.621,207.631h22.569c3.077,0,4.938,0.266,6.421,0.988c2.015,0.987,3.687,3.608,3.687,6.572
			c0,2.545-1.064,5.281-4.181,6.193v0.076c1.597,0.456,2.889,1.824,3.077,4.179l0.456,5.927c0.114,1.217,0.646,2.355,1.33,3.191
			h-11.702c-0.38-0.798-0.38-1.977-0.57-5.129c-0.112-2.015-0.798-3.23-2.772-3.23h-7.6v8.359h-10.714L408.621,207.631
			L408.621,207.631z M419.335,219.562h7.6c2.09,0,2.964-0.836,2.964-2.545c0-2.052-1.33-2.546-3.116-2.546h-7.446L419.335,219.562
			L419.335,219.562z"/>
	</g>
	<g>
		<path fill="#FFFFFF" d="M187.681,283h-2.521l-2.743-4.412l-0.938,0.673V283h-2.221v-10.473h2.221v4.792l0.874-1.231l2.836-3.561
			h2.464L184,277.162L187.681,283z"/>
		<path fill="#FFFFFF" d="M197.799,283v-10.473h2.221V283H197.799z"/>
		<path fill="#FFFFFF" d="M215.89,283l-2.521-8.216h-0.063c0.09,1.671,0.136,2.785,0.136,3.345V283h-1.984v-10.473h3.022
			l2.479,8.008H217l2.628-8.008h3.022V283h-2.07v-4.957c0-0.233,0.003-0.504,0.011-0.81c0.008-0.307,0.04-1.116,0.098-2.436h-0.064
			l-2.7,8.201L215.89,283L215.89,283z"/>
		<path fill="#FFFFFF" d="M235.678,272.528l0.1,0.158c-0.239,0.94-0.659,2.083-1.261,3.432h-1.568c0.33-1.414,0.568-2.61,0.716-3.59
			H235.678z"/>
		<path fill="#FFFFFF" d="M252.25,280.092c0,0.945-0.34,1.688-1.021,2.234c-0.682,0.545-1.627,0.815-2.84,0.815
			c-1.118,0-2.106-0.21-2.966-0.631v-2.062c0.707,0.314,1.306,0.536,1.795,0.665c0.489,0.13,0.938,0.193,1.343,0.193
			c0.486,0,0.859-0.092,1.121-0.279c0.261-0.186,0.391-0.463,0.391-0.829c0-0.205-0.058-0.39-0.172-0.549
			c-0.115-0.159-0.283-0.313-0.505-0.462c-0.223-0.147-0.674-0.385-1.357-0.709c-0.64-0.301-1.12-0.59-1.438-0.867
			c-0.32-0.275-0.576-0.6-0.768-0.967c-0.19-0.367-0.287-0.797-0.287-1.289c0-0.927,0.314-1.654,0.942-2.185
			s1.496-0.795,2.604-0.795c0.544,0,1.062,0.063,1.558,0.192c0.494,0.129,1.011,0.312,1.55,0.544l-0.716,1.727
			c-0.56-0.229-1.021-0.391-1.386-0.48c-0.365-0.09-0.725-0.136-1.078-0.136c-0.42,0-0.743,0.098-0.967,0.294
			c-0.226,0.195-0.336,0.451-0.336,0.767c0,0.196,0.045,0.366,0.136,0.513c0.09,0.146,0.234,0.286,0.433,0.423
			c0.198,0.136,0.667,0.381,1.407,0.734c0.979,0.468,1.65,0.937,2.013,1.405C252.068,278.832,252.25,279.408,252.25,280.092z"/>
		<path fill="#FFFFFF" d="M280.008,274.226c-0.835,0-1.481,0.314-1.94,0.942c-0.458,0.627-0.688,1.502-0.688,2.625
			c0,2.334,0.876,3.502,2.628,3.502c0.735,0,1.626-0.185,2.672-0.552v1.861c-0.859,0.358-1.819,0.537-2.88,0.537
			c-1.522,0-2.688-0.462-3.495-1.386s-1.211-2.25-1.211-3.979c0-1.089,0.198-2.042,0.595-2.86c0.396-0.819,0.966-1.447,1.708-1.884
			c0.742-0.438,1.611-0.655,2.609-0.655c1.018,0,2.039,0.246,3.065,0.738l-0.716,1.804c-0.392-0.187-0.785-0.349-1.183-0.486
			C280.775,274.295,280.39,274.226,280.008,274.226z"/>
		<path fill="#FFFFFF" d="M300.118,283l-0.759-2.493h-3.818L294.782,283h-2.393l3.695-10.516h2.715L302.51,283H300.118z
			 M298.829,278.645c-0.702-2.258-1.097-3.535-1.185-3.832c-0.089-0.296-0.151-0.528-0.19-0.701
			c-0.158,0.611-0.608,2.123-1.354,4.533H298.829z"/>
		<path fill="#FFFFFF" d="M314.85,278.981V283h-2.221v-10.473h3.052c1.423,0,2.476,0.26,3.157,0.777
			c0.684,0.52,1.024,1.304,1.024,2.361c0,0.614-0.169,1.163-0.508,1.643c-0.339,0.48-0.819,0.856-1.44,1.129
			c1.576,2.354,2.604,3.875,3.08,4.562h-2.464l-2.5-4.02H314.85L314.85,278.981z M314.85,277.177h0.716
			c0.702,0,1.22-0.117,1.554-0.351c0.334-0.234,0.501-0.603,0.501-1.104c0-0.496-0.171-0.85-0.512-1.061
			c-0.341-0.21-0.87-0.314-1.586-0.314h-0.673V277.177z"/>
		<path fill="#FFFFFF" d="M345.945,278.981V283h-2.221v-10.473h3.051c1.423,0,2.476,0.26,3.159,0.777
			c0.683,0.52,1.023,1.304,1.023,2.361c0,0.614-0.169,1.163-0.509,1.643c-0.339,0.48-0.819,0.856-1.439,1.129
			c1.576,2.354,2.604,3.875,3.08,4.562h-2.464l-2.5-4.02H345.945L345.945,278.981z M345.945,277.177h0.716
			c0.702,0,1.22-0.117,1.554-0.351c0.334-0.234,0.501-0.603,0.501-1.104c0-0.496-0.171-0.85-0.512-1.061
			c-0.341-0.21-0.871-0.314-1.587-0.314h-0.673L345.945,277.177L345.945,277.177z"/>
		<path fill="#FFFFFF" d="M368.24,283h-6.031v-10.473h6.031v1.819h-3.81v2.299h3.545v1.819h-3.545v2.7h3.81V283z"/>
		<path fill="#FFFFFF" d="M388.515,283h-2.822l-4.555-7.922h-0.064c0.09,1.397,0.136,2.396,0.136,2.993V283h-1.983v-10.473h2.8
			l4.548,7.844h0.05c-0.071-1.361-0.106-2.323-0.106-2.888v-4.956h1.998V283L388.515,283z"/>
		<path fill="#FFFFFF" d="M403.991,283h-2.22v-8.624h-2.843v-1.849h7.906v1.849h-2.843L403.991,283L403.991,283z"/>
		<path fill="#FFFFFF" d="M423.657,283l-0.759-2.493h-3.818L418.321,283h-2.392l3.695-10.516h2.716l3.71,10.516H423.657z
			 M422.368,278.645c-0.701-2.258-1.097-3.535-1.186-3.832c-0.088-0.296-0.151-0.528-0.189-0.701
			c-0.158,0.611-0.609,2.123-1.354,4.533H422.368z"/>
		<path fill="#FFFFFF" d="M436.169,283v-10.473h2.221v8.639h4.247V283H436.169z"/>
	</g>
</g>
</svg>
